<svg width="12" height="12" viewBox="0 0 12 12" fill="none" xmlns="http://www.w3.org/2000/svg">
<g clip-path="url(#clip0_205_2)">
<path d="M4.2418 4.76988C4.7203 4.76988 5.10909 5.02533 5.30847 5.46894L5.32342 5.50384L6.12591 5.23094L6.10971 5.18982C5.79943 4.43218 5.08292 3.9624 4.2418 3.9624C3.6499 3.9624 3.1689 4.15181 2.77139 4.54184C2.37638 4.92938 2.177 5.41661 2.177 5.98982C2.177 6.55929 2.37762 7.04402 2.77139 7.43031C3.1689 7.82035 3.6499 8.00975 4.2418 8.00975C5.08292 8.00975 5.79819 7.53873 6.10971 6.78234L6.12591 6.74122L5.32217 6.46832L5.30847 6.50446C5.12903 6.94184 4.73027 7.20228 4.2418 7.20228C3.90909 7.20228 3.62747 7.08639 3.40566 6.85711C3.18012 6.62533 3.06672 6.3325 3.06672 5.98982C3.06672 5.64465 3.17762 5.35804 3.40566 5.11505C3.62872 4.88577 3.90909 4.76988 4.2418 4.76988Z" fill="white"/>
<path d="M7.72595 11.6436L7.48669 10.8548C9.64495 10.1994 11.0954 8.24425 11.0954 5.99004C11.0954 5.36824 10.9845 4.76014 10.7652 4.18444L11.5353 3.8916C11.7907 4.56201 11.9203 5.2673 11.9203 5.99129C11.9191 8.60936 10.2344 10.881 7.72595 11.6436Z" fill="url(#paint0_linear_205_2)"/>
<path d="M10.8724 4.49953C10.2132 2.34875 8.25553 0.904512 6.00008 0.904512C5.69354 0.904512 5.387 0.931926 5.08793 0.985509L4.94214 0.174294C5.28856 0.111989 5.64494 0.0795898 6.00008 0.0795898C8.6194 0.0795898 10.8935 1.75809 11.6599 4.25654L10.8724 4.49953Z" fill="#69D3A7"/>
<path d="M9.26739 4.03711L8.12471 6.93306L6.97331 4.03711H6.03125L7.6462 7.98976L6.46988 10.8433L7.29356 11.0078L10.1571 4.03711H9.26739Z" fill="white"/>
<path d="M6.61813 10.4847L6.44492 10.9047C6.40504 11.0006 6.31408 11.0667 6.2119 11.0704C6.14087 11.0729 6.07109 11.0754 5.99881 11.0754C3.87046 11.0754 1.96143 9.73457 1.22498 7.76946C1.21376 7.73955 1.20255 7.70964 1.19258 7.67974C1.19009 7.67226 1.1876 7.66354 1.18386 7.65606C1.17514 7.62865 1.16517 7.60248 1.15644 7.57507C1.15271 7.5651 1.15021 7.55513 1.14648 7.54391C1.139 7.51899 1.13028 7.49531 1.1228 7.47039C1.11906 7.45793 1.11532 7.44547 1.11158 7.43301C0.973266 6.96697 0.903485 6.48223 0.903485 5.98877C0.903485 3.36198 2.87607 1.18628 5.4904 0.928336L5.4094 0.108398C2.37264 0.40871 0.0810547 2.93706 0.0810547 5.99002C0.0810547 6.54578 0.158313 7.09282 0.309092 7.62117V7.62242C0.319061 7.65855 0.330276 7.69344 0.341491 7.72958C0.342737 7.73457 0.343983 7.73955 0.346475 7.74454C0.356444 7.77818 0.367659 7.81182 0.378874 7.84547C0.381366 7.8517 0.382612 7.85668 0.385105 7.86292C0.396319 7.89656 0.407534 7.9302 0.419995 7.96385C0.421242 7.96883 0.423734 7.97257 0.42498 7.97756C0.436195 8.00996 0.448656 8.04235 0.459871 8.07351C1.31968 10.3477 3.53152 11.8978 5.99757 11.8991H5.99881C6.08105 11.8991 6.1633 11.8978 6.24554 11.8941C6.66797 11.8766 7.04554 11.6112 7.20753 11.2187L7.4418 10.6492L6.61813 10.4847Z" fill="url(#paint1_linear_205_2)"/>
</g>
<defs>
<linearGradient id="paint0_linear_205_2" x1="12.3738" y1="6.02745" x2="7.08881" y2="9.44928" gradientUnits="userSpaceOnUse">
<stop offset="0.0814251" stop-color="#69D3A7"/>
<stop offset="1" stop-color="#69D3A7" stop-opacity="0"/>
</linearGradient>
<linearGradient id="paint1_linear_205_2" x1="6.64479" y1="11.2556" x2="1.08304" y2="0.580951" gradientUnits="userSpaceOnUse">
<stop offset="0.0613291" stop-color="white"/>
<stop offset="0.138" stop-color="#DEF5EC"/>
<stop offset="0.2374" stop-color="#BAEBD7"/>
<stop offset="0.3427" stop-color="#9DE2C5"/>
<stop offset="0.4536" stop-color="#86DBB8"/>
<stop offset="0.573" stop-color="#76D7AE"/>
<stop offset="0.7067" stop-color="#6CD4A9"/>
<stop offset="0.8842" stop-color="#69D3A7"/>
</linearGradient>
<clipPath id="clip0_205_2">
<rect width="12" height="11.9801" fill="white"/>
</clipPath>
</defs>
</svg>
