<svg width="1440" height="200" viewBox="0 0 1440 200" fill="none" xmlns="http://www.w3.org/2000/svg">
<rect width="1440" height="200" fill="#4FD1B2"/>
<path d="M642.018 72.4545V127H634.454L606.728 86.9964H606.222V127H597.993V72.4545H605.61L633.362 112.511H633.868V72.4545H642.018ZM710.273 127V72.4545H744.47V79.5391H718.503V96.1584H742.686V103.216H718.503V119.915H744.79V127H710.273ZM841.463 86.7834C841.179 84.2621 840.007 82.3089 837.947 80.924C835.888 79.5213 833.295 78.82 830.17 78.82C827.933 78.82 825.998 79.1751 824.364 79.8853C822.731 80.5778 821.461 81.5366 820.556 82.7617C819.668 83.9691 819.224 85.3452 819.224 86.8899C819.224 88.1861 819.526 89.3047 820.129 90.2457C820.751 91.1868 821.559 91.9769 822.553 92.6161C823.565 93.2376 824.648 93.7614 825.802 94.1875C826.956 94.5959 828.066 94.9332 829.132 95.1996L834.458 96.5845C836.198 97.0107 837.983 97.5877 839.812 98.3157C841.64 99.0437 843.336 100.002 844.899 101.192C846.461 102.382 847.722 103.855 848.681 105.613C849.657 107.371 850.145 109.475 850.145 111.925C850.145 115.015 849.346 117.758 847.748 120.155C846.168 122.552 843.869 124.443 840.85 125.828C837.85 127.213 834.219 127.906 829.957 127.906C825.873 127.906 822.34 127.257 819.357 125.961C816.374 124.665 814.039 122.827 812.352 120.448C810.666 118.051 809.733 115.21 809.556 111.925H817.812C817.972 113.896 818.611 115.539 819.73 116.853C820.866 118.149 822.313 119.116 824.071 119.756C825.847 120.377 827.791 120.688 829.904 120.688C832.23 120.688 834.298 120.324 836.11 119.596C837.938 118.85 839.377 117.82 840.424 116.506C841.472 115.175 841.996 113.621 841.996 111.846C841.996 110.23 841.534 108.907 840.611 107.877C839.705 106.847 838.471 105.995 836.909 105.32C835.364 104.646 833.615 104.051 831.662 103.536L825.216 101.778C820.849 100.588 817.386 98.8395 814.829 96.5312C812.29 94.223 811.021 91.169 811.021 87.3693C811.021 84.2266 811.873 81.4833 813.578 79.1396C815.282 76.7958 817.59 74.9759 820.502 73.6797C823.414 72.3658 826.699 71.7088 830.357 71.7088C834.05 71.7088 837.308 72.3569 840.131 73.6531C842.972 74.9492 845.209 76.7337 846.843 79.0064C848.476 81.2614 849.329 83.8537 849.4 86.7834H841.463ZM945.979 86.7834C945.695 84.2621 944.524 82.3089 942.464 80.924C940.404 79.5213 937.812 78.82 934.687 78.82C932.45 78.82 930.514 79.1751 928.881 79.8853C927.247 80.5778 925.978 81.5366 925.072 82.7617C924.184 83.9691 923.741 85.3452 923.741 86.8899C923.741 88.1861 924.042 89.3047 924.646 90.2457C925.267 91.1868 926.075 91.9769 927.07 92.6161C928.082 93.2376 929.165 93.7614 930.319 94.1875C931.473 94.5959 932.583 94.9332 933.648 95.1996L938.975 96.5845C940.715 97.0107 942.499 97.5877 944.328 98.3157C946.157 99.0437 947.853 100.002 949.415 101.192C950.978 102.382 952.238 103.855 953.197 105.613C954.174 107.371 954.662 109.475 954.662 111.925C954.662 115.015 953.863 117.758 952.265 120.155C950.685 122.552 948.385 124.443 945.367 125.828C942.366 127.213 938.735 127.906 934.474 127.906C930.39 127.906 926.857 127.257 923.874 125.961C920.891 124.665 918.556 122.827 916.869 120.448C915.182 118.051 914.25 115.21 914.073 111.925H922.329C922.489 113.896 923.128 115.539 924.247 116.853C925.383 118.149 926.83 119.116 928.588 119.756C930.363 120.377 932.308 120.688 934.421 120.688C936.747 120.688 938.815 120.324 940.626 119.596C942.455 118.85 943.893 117.82 944.941 116.506C945.988 115.175 946.512 113.621 946.512 111.846C946.512 110.23 946.051 108.907 945.127 107.877C944.222 106.847 942.988 105.995 941.425 105.32C939.88 104.646 938.131 104.051 936.178 103.536L929.733 101.778C925.365 100.588 921.903 98.8395 919.346 96.5312C916.807 94.223 915.537 91.169 915.537 87.3693C915.537 84.2266 916.39 81.4833 918.094 79.1396C919.799 76.7958 922.107 74.9759 925.019 73.6797C927.931 72.3658 931.216 71.7088 934.873 71.7088C938.566 71.7088 941.825 72.3569 944.648 73.6531C947.489 74.9492 949.726 76.7337 951.359 79.0064C952.993 81.2614 953.845 83.8537 953.916 86.7834H945.979Z" fill="white"/>
<path d="M813.815 151.182V173H811.301V151.182H813.815ZM831.281 173.341C829.704 173.341 828.344 172.993 827.201 172.297C826.064 171.594 825.187 170.614 824.569 169.357C823.959 168.092 823.653 166.622 823.653 164.946C823.653 163.27 823.959 161.793 824.569 160.514C825.187 159.229 826.047 158.227 827.148 157.51C828.256 156.786 829.548 156.423 831.025 156.423C831.878 156.423 832.719 156.565 833.55 156.849C834.381 157.134 835.138 157.595 835.819 158.234C836.501 158.866 837.045 159.705 837.449 160.749C837.854 161.793 838.057 163.078 838.057 164.605V165.67H825.443V163.497H835.5C835.5 162.574 835.315 161.75 834.946 161.026C834.584 160.301 834.065 159.729 833.39 159.31C832.723 158.891 831.934 158.682 831.025 158.682C830.024 158.682 829.157 158.93 828.426 159.428C827.702 159.918 827.144 160.557 826.753 161.345C826.363 162.134 826.167 162.979 826.167 163.881V165.33C826.167 166.565 826.381 167.613 826.807 168.472C827.24 169.325 827.84 169.974 828.607 170.422C829.374 170.862 830.265 171.082 831.281 171.082C831.942 171.082 832.538 170.99 833.071 170.805C833.611 170.614 834.076 170.33 834.466 169.953C834.857 169.57 835.159 169.094 835.372 168.526L837.801 169.207C837.545 170.031 837.116 170.756 836.512 171.381C835.908 171.999 835.162 172.482 834.275 172.83C833.387 173.17 832.389 173.341 831.281 173.341ZM854.998 156.636V158.767H846.518V156.636H854.998ZM848.989 152.716H851.503V168.312C851.503 169.023 851.606 169.555 851.812 169.911C852.025 170.259 852.295 170.493 852.622 170.614C852.956 170.727 853.307 170.784 853.677 170.784C853.954 170.784 854.181 170.77 854.358 170.741C854.536 170.706 854.678 170.678 854.785 170.656L855.296 172.915C855.126 172.979 854.888 173.043 854.582 173.107C854.277 173.178 853.89 173.213 853.421 173.213C852.711 173.213 852.015 173.06 851.333 172.755C850.658 172.45 850.097 171.984 849.65 171.359C849.209 170.734 848.989 169.946 848.989 168.994V152.716ZM867.845 151.182V153.099C867.845 153.682 867.739 154.303 867.526 154.964C867.32 155.617 867.014 156.253 866.609 156.871C866.212 157.482 865.729 158.014 865.161 158.469L863.797 157.361C864.244 156.722 864.631 156.058 864.958 155.369C865.292 154.673 865.459 153.93 865.459 153.142V151.182H867.845ZM886.443 160.301L884.184 160.94C884.042 160.564 883.833 160.198 883.556 159.843C883.286 159.481 882.917 159.183 882.448 158.948C881.979 158.714 881.379 158.597 880.647 158.597C879.646 158.597 878.811 158.827 878.144 159.289C877.483 159.744 877.153 160.322 877.153 161.026C877.153 161.651 877.38 162.144 877.835 162.506C878.289 162.869 879 163.17 879.966 163.412L882.395 164.009C883.858 164.364 884.948 164.907 885.665 165.638C886.382 166.363 886.741 167.297 886.741 168.44C886.741 169.378 886.471 170.216 885.931 170.955C885.399 171.693 884.653 172.276 883.694 172.702C882.735 173.128 881.62 173.341 880.349 173.341C878.68 173.341 877.299 172.979 876.205 172.254C875.111 171.53 874.419 170.472 874.127 169.08L876.514 168.483C876.741 169.364 877.171 170.024 877.803 170.464C878.442 170.905 879.277 171.125 880.306 171.125C881.478 171.125 882.409 170.876 883.098 170.379C883.794 169.875 884.142 169.271 884.142 168.568C884.142 168 883.943 167.524 883.545 167.141C883.147 166.75 882.537 166.459 881.713 166.267L878.985 165.628C877.487 165.273 876.386 164.722 875.683 163.977C874.987 163.224 874.639 162.283 874.639 161.153C874.639 160.23 874.898 159.413 875.417 158.703C875.942 157.993 876.656 157.435 877.558 157.031C878.467 156.626 879.497 156.423 880.647 156.423C882.267 156.423 883.538 156.778 884.461 157.489C885.392 158.199 886.052 159.136 886.443 160.301ZM918.08 156.636V158.767H909.6V156.636H918.08ZM912.071 152.716H914.585V168.312C914.585 169.023 914.688 169.555 914.894 169.911C915.107 170.259 915.377 170.493 915.704 170.614C916.038 170.727 916.389 170.784 916.759 170.784C917.036 170.784 917.263 170.77 917.441 170.741C917.618 170.706 917.76 170.678 917.867 170.656L918.378 172.915C918.208 172.979 917.97 173.043 917.664 173.107C917.359 173.178 916.972 173.213 916.503 173.213C915.793 173.213 915.097 173.06 914.415 172.755C913.74 172.45 913.179 171.984 912.732 171.359C912.291 170.734 912.071 169.946 912.071 168.994V152.716ZM934.547 173.341C932.97 173.341 931.61 172.993 930.466 172.297C929.33 171.594 928.453 170.614 927.835 169.357C927.224 168.092 926.919 166.622 926.919 164.946C926.919 163.27 927.224 161.793 927.835 160.514C928.453 159.229 929.312 158.227 930.413 157.51C931.521 156.786 932.814 156.423 934.291 156.423C935.143 156.423 935.985 156.565 936.816 156.849C937.647 157.134 938.403 157.595 939.085 158.234C939.767 158.866 940.31 159.705 940.715 160.749C941.12 161.793 941.322 163.078 941.322 164.605V165.67H928.709V163.497H938.765C938.765 162.574 938.581 161.75 938.211 161.026C937.849 160.301 937.331 159.729 936.656 159.31C935.988 158.891 935.2 158.682 934.291 158.682C933.29 158.682 932.423 158.93 931.692 159.428C930.967 159.918 930.41 160.557 930.019 161.345C929.628 162.134 929.433 162.979 929.433 163.881V165.33C929.433 166.565 929.646 167.613 930.072 168.472C930.506 169.325 931.106 169.974 931.873 170.422C932.64 170.862 933.531 171.082 934.547 171.082C935.207 171.082 935.804 170.99 936.336 170.805C936.876 170.614 937.341 170.33 937.732 169.953C938.123 169.57 938.425 169.094 938.638 168.526L941.067 169.207C940.811 170.031 940.381 170.756 939.778 171.381C939.174 171.999 938.428 172.482 937.54 172.83C936.653 173.17 935.655 173.341 934.547 173.341ZM962.738 160.301L960.479 160.94C960.337 160.564 960.128 160.198 959.851 159.843C959.581 159.481 959.211 159.183 958.743 158.948C958.274 158.714 957.674 158.597 956.942 158.597C955.941 158.597 955.106 158.827 954.439 159.289C953.778 159.744 953.448 160.322 953.448 161.026C953.448 161.651 953.675 162.144 954.13 162.506C954.584 162.869 955.295 163.17 956.26 163.412L958.689 164.009C960.153 164.364 961.243 164.907 961.96 165.638C962.677 166.363 963.036 167.297 963.036 168.44C963.036 169.378 962.766 170.216 962.226 170.955C961.694 171.693 960.948 172.276 959.989 172.702C959.03 173.128 957.915 173.341 956.644 173.341C954.975 173.341 953.594 172.979 952.5 172.254C951.406 171.53 950.714 170.472 950.422 169.08L952.809 168.483C953.036 169.364 953.466 170.024 954.098 170.464C954.737 170.905 955.572 171.125 956.601 171.125C957.773 171.125 958.704 170.876 959.393 170.379C960.089 169.875 960.437 169.271 960.437 168.568C960.437 168 960.238 167.524 959.84 167.141C959.442 166.75 958.831 166.459 958.008 166.267L955.28 165.628C953.782 165.273 952.681 164.722 951.978 163.977C951.282 163.224 950.934 162.283 950.934 161.153C950.934 160.23 951.193 159.413 951.711 158.703C952.237 157.993 952.951 157.435 953.853 157.031C954.762 156.626 955.792 156.423 956.942 156.423C958.562 156.423 959.833 156.778 960.756 157.489C961.687 158.199 962.347 159.136 962.738 160.301ZM979.937 156.636V158.767H971.457V156.636H979.937ZM973.929 152.716H976.443V168.312C976.443 169.023 976.546 169.555 976.752 169.911C976.965 170.259 977.235 170.493 977.561 170.614C977.895 170.727 978.247 170.784 978.616 170.784C978.893 170.784 979.12 170.77 979.298 170.741C979.475 170.706 979.618 170.678 979.724 170.656L980.235 172.915C980.065 172.979 979.827 173.043 979.522 173.107C979.216 173.178 978.829 173.213 978.36 173.213C977.65 173.213 976.954 173.06 976.272 172.755C975.598 172.45 975.037 171.984 974.589 171.359C974.149 170.734 973.929 169.946 973.929 168.994V152.716ZM1004.16 173V156.636H1006.67V173H1004.16ZM1005.44 153.909C1004.94 153.909 1004.52 153.742 1004.17 153.408C1003.82 153.075 1003.65 152.673 1003.65 152.205C1003.65 151.736 1003.82 151.335 1004.17 151.001C1004.52 150.667 1004.94 150.5 1005.44 150.5C1005.93 150.5 1006.34 150.667 1006.69 151.001C1007.05 151.335 1007.22 151.736 1007.22 152.205C1007.22 152.673 1007.05 153.075 1006.69 153.408C1006.34 153.742 1005.93 153.909 1005.44 153.909ZM1024.39 156.636V158.767H1015.91V156.636H1024.39ZM1018.38 152.716H1020.9V168.312C1020.9 169.023 1021 169.555 1021.21 169.911C1021.42 170.259 1021.69 170.493 1022.02 170.614C1022.35 170.727 1022.7 170.784 1023.07 170.784C1023.35 170.784 1023.58 170.77 1023.75 170.741C1023.93 170.706 1024.07 170.678 1024.18 170.656L1024.69 172.915C1024.52 172.979 1024.28 173.043 1023.98 173.107C1023.67 173.178 1023.28 173.213 1022.82 173.213C1022.11 173.213 1021.41 173.06 1020.73 172.755C1020.05 172.45 1019.49 171.984 1019.04 171.359C1018.6 170.734 1018.38 169.946 1018.38 168.994V152.716Z" fill="white"/>
<circle cx="467" cy="100" r="75" fill="white"/>
<path d="M436.328 108.037H446.13L451.057 114.376L455.904 120.022L465.039 131.474H454.279L447.994 123.751L444.771 119.17L436.328 108.037ZM465.865 99.7273C465.865 105.675 464.738 110.736 462.483 114.908C460.245 119.081 457.191 122.268 453.321 124.47C449.468 126.654 445.135 127.746 440.324 127.746C435.476 127.746 431.126 126.645 427.273 124.443C423.42 122.241 420.375 119.054 418.138 114.882C415.901 110.709 414.782 105.658 414.782 99.7273C414.782 93.7791 415.901 88.7188 418.138 84.5462C420.375 80.3736 423.42 77.1953 427.273 75.0114C431.126 72.8097 435.476 71.7088 440.324 71.7088C445.135 71.7088 449.468 72.8097 453.321 75.0114C457.191 77.1953 460.245 80.3736 462.483 84.5462C464.738 88.7188 465.865 93.7791 465.865 99.7273ZM454.173 99.7273C454.173 95.8743 453.596 92.625 452.442 89.9794C451.305 87.3338 449.699 85.3274 447.621 83.9602C445.544 82.593 443.111 81.9094 440.324 81.9094C437.536 81.9094 435.103 82.593 433.026 83.9602C430.949 85.3274 429.333 87.3338 428.179 89.9794C427.042 92.625 426.474 95.8743 426.474 99.7273C426.474 103.58 427.042 106.83 428.179 109.475C429.333 112.121 430.949 114.127 433.026 115.494C435.103 116.862 437.536 117.545 440.324 117.545C443.111 117.545 445.544 116.862 447.621 115.494C449.699 114.127 451.305 112.121 452.442 109.475C453.596 106.83 454.173 103.58 454.173 99.7273ZM480.733 127H468.375L487.205 72.4545H502.067L520.87 127H508.512L494.849 84.919H494.423L480.733 127ZM479.961 105.56H509.151V114.562H479.961V105.56Z" fill="#4FD1B2"/>
</svg>
