<svg width="1440" height="200" viewBox="0 0 1440 200" fill="none" xmlns="http://www.w3.org/2000/svg">
<rect width="1440" height="200" fill="#4FD1B2"/>
<path d="M647.239 82.6364V119H642.977L623.162 90.4489H622.807V119H618.403V82.6364H622.665L642.551 111.259H642.906V82.6364H647.239ZM706.05 119V82.6364H727.996V86.5426H710.453V98.8295H726.86V102.736H710.453V115.094H728.28V119H706.05ZM805.819 91.7273C805.606 89.928 804.742 88.5312 803.227 87.5369C801.712 86.5426 799.853 86.0455 797.651 86.0455C796.042 86.0455 794.633 86.3059 793.426 86.8267C792.23 87.3475 791.295 88.0637 790.62 88.9751C789.957 89.8866 789.626 90.9223 789.626 92.0824C789.626 93.053 789.857 93.8875 790.318 94.5859C790.792 95.2725 791.396 95.8466 792.129 96.3082C792.863 96.758 793.633 97.1309 794.438 97.4268C795.243 97.7109 795.982 97.9418 796.657 98.1193L800.35 99.1136C801.297 99.3622 802.351 99.7055 803.511 100.143C804.683 100.581 805.801 101.179 806.867 101.937C807.944 102.683 808.832 103.641 809.53 104.813C810.228 105.985 810.578 107.423 810.578 109.128C810.578 111.093 810.063 112.868 809.033 114.455C808.015 116.041 806.523 117.301 804.558 118.237C802.605 119.172 800.232 119.639 797.438 119.639C794.834 119.639 792.579 119.219 790.673 118.379C788.78 117.538 787.288 116.366 786.199 114.863C785.122 113.36 784.512 111.614 784.37 109.625H788.916C789.034 110.998 789.496 112.134 790.301 113.034C791.117 113.922 792.147 114.585 793.39 115.023C794.645 115.449 795.994 115.662 797.438 115.662C799.119 115.662 800.628 115.39 801.966 114.845C803.304 114.289 804.363 113.519 805.144 112.537C805.926 111.543 806.316 110.383 806.316 109.057C806.316 107.849 805.979 106.867 805.304 106.109C804.629 105.352 803.742 104.736 802.641 104.263C801.54 103.789 800.35 103.375 799.072 103.02L794.597 101.741C791.757 100.925 789.508 99.7588 787.85 98.2436C786.193 96.7285 785.365 94.7457 785.365 92.2955C785.365 90.2595 785.915 88.4839 787.016 86.9688C788.128 85.4418 789.62 84.258 791.49 83.4176C793.372 82.5653 795.473 82.1392 797.794 82.1392C800.137 82.1392 802.221 82.5594 804.044 83.3999C805.866 84.2285 807.311 85.3648 808.376 86.8089C809.453 88.2531 810.021 89.8925 810.08 91.7273H805.819ZM887.704 91.7273C887.491 89.928 886.627 88.5312 885.112 87.5369C883.596 86.5426 881.738 86.0455 879.536 86.0455C877.926 86.0455 876.518 86.3059 875.31 86.8267C874.115 87.3475 873.18 88.0637 872.505 88.9751C871.842 89.8866 871.511 90.9223 871.511 92.0824C871.511 93.053 871.741 93.8875 872.203 94.5859C872.677 95.2725 873.28 95.8466 874.014 96.3082C874.748 96.758 875.518 97.1309 876.322 97.4268C877.127 97.7109 877.867 97.9418 878.542 98.1193L882.235 99.1136C883.182 99.3622 884.236 99.7055 885.396 100.143C886.567 100.581 887.686 101.179 888.751 101.937C889.829 102.683 890.716 103.641 891.415 104.813C892.113 105.985 892.462 107.423 892.462 109.128C892.462 111.093 891.947 112.868 890.918 114.455C889.9 116.041 888.408 117.301 886.443 118.237C884.49 119.172 882.117 119.639 879.323 119.639C876.719 119.639 874.464 119.219 872.558 118.379C870.664 117.538 869.173 116.366 868.084 114.863C867.007 113.36 866.397 111.614 866.255 109.625H870.8C870.919 110.998 871.38 112.134 872.185 113.034C873.002 113.922 874.032 114.585 875.275 115.023C876.53 115.449 877.879 115.662 879.323 115.662C881.004 115.662 882.513 115.39 883.851 114.845C885.188 114.289 886.248 113.519 887.029 112.537C887.81 111.543 888.201 110.383 888.201 109.057C888.201 107.849 887.864 106.867 887.189 106.109C886.514 105.352 885.626 104.736 884.526 104.263C883.425 103.789 882.235 103.375 880.957 103.02L876.482 101.741C873.641 100.925 871.392 99.7588 869.735 98.2436C868.078 96.7285 867.249 94.7457 867.249 92.2955C867.249 90.2595 867.8 88.4839 868.901 86.9688C870.013 85.4418 871.505 84.258 873.375 83.4176C875.257 82.5653 877.358 82.1392 879.678 82.1392C882.022 82.1392 884.105 82.5594 885.928 83.3999C887.751 84.2285 889.195 85.3648 890.261 86.8089C891.338 88.2531 891.906 89.8925 891.965 91.7273H887.704Z" fill="white"/>
<path d="M754.21 142.455V157H752.534V142.455H754.21ZM765.854 157.227C764.803 157.227 763.896 156.995 763.134 156.531C762.376 156.062 761.792 155.409 761.38 154.571C760.972 153.728 760.769 152.748 760.769 151.631C760.769 150.513 760.972 149.528 761.38 148.676C761.792 147.819 762.364 147.152 763.098 146.673C763.837 146.19 764.699 145.949 765.684 145.949C766.252 145.949 766.813 146.044 767.367 146.233C767.921 146.422 768.425 146.73 768.88 147.156C769.334 147.578 769.696 148.136 769.966 148.832C770.236 149.528 770.371 150.385 770.371 151.403V152.114H761.962V150.665H768.667C768.667 150.049 768.543 149.5 768.297 149.017C768.056 148.534 767.71 148.153 767.26 147.874C766.815 147.594 766.29 147.455 765.684 147.455C765.016 147.455 764.438 147.62 763.951 147.952C763.468 148.278 763.096 148.705 762.836 149.23C762.575 149.756 762.445 150.319 762.445 150.92V151.886C762.445 152.71 762.587 153.409 762.871 153.982C763.16 154.55 763.56 154.983 764.071 155.281C764.583 155.575 765.177 155.722 765.854 155.722C766.294 155.722 766.692 155.66 767.047 155.537C767.407 155.409 767.717 155.22 767.978 154.969C768.238 154.713 768.439 154.396 768.581 154.017L770.201 154.472C770.03 155.021 769.744 155.504 769.341 155.92C768.939 156.332 768.442 156.654 767.85 156.886C767.258 157.114 766.593 157.227 765.854 157.227ZM781.665 146.091V147.511H776.012V146.091H781.665ZM777.659 143.477H779.336V153.875C779.336 154.348 779.404 154.704 779.542 154.94C779.684 155.172 779.864 155.329 780.081 155.409C780.304 155.485 780.538 155.523 780.784 155.523C780.969 155.523 781.121 155.513 781.239 155.494C781.357 155.471 781.452 155.452 781.523 155.438L781.864 156.943C781.75 156.986 781.592 157.028 781.388 157.071C781.185 157.118 780.926 157.142 780.614 157.142C780.141 157.142 779.676 157.04 779.222 156.837C778.772 156.633 778.398 156.323 778.1 155.906C777.806 155.49 777.659 154.964 777.659 154.33V143.477ZM790.23 142.455V143.733C790.23 144.121 790.159 144.536 790.017 144.976C789.88 145.411 789.676 145.835 789.406 146.247C789.141 146.654 788.819 147.009 788.44 147.312L787.531 146.574C787.83 146.148 788.088 145.705 788.305 145.246C788.528 144.782 788.639 144.287 788.639 143.761V142.455H790.23ZM802.629 148.534L801.123 148.96C801.028 148.709 800.888 148.465 800.704 148.229C800.524 147.987 800.278 147.788 799.965 147.632C799.653 147.476 799.253 147.398 798.765 147.398C798.097 147.398 797.541 147.552 797.096 147.859C796.656 148.162 796.435 148.548 796.435 149.017C796.435 149.434 796.587 149.763 796.89 150.004C797.193 150.246 797.666 150.447 798.31 150.608L799.93 151.006C800.905 151.242 801.632 151.605 802.11 152.092C802.588 152.575 802.827 153.198 802.827 153.96C802.827 154.585 802.647 155.144 802.288 155.636C801.933 156.129 801.435 156.517 800.796 156.801C800.157 157.085 799.414 157.227 798.566 157.227C797.453 157.227 796.532 156.986 795.803 156.503C795.074 156.02 794.612 155.314 794.418 154.386L796.009 153.989C796.161 154.576 796.447 155.016 796.869 155.31C797.295 155.603 797.851 155.75 798.538 155.75C799.319 155.75 799.939 155.584 800.398 155.253C800.862 154.917 801.094 154.514 801.094 154.045C801.094 153.667 800.962 153.349 800.697 153.094C800.432 152.833 800.024 152.639 799.475 152.511L797.657 152.085C796.658 151.848 795.924 151.482 795.455 150.984C794.991 150.482 794.759 149.855 794.759 149.102C794.759 148.487 794.932 147.942 795.278 147.469C795.628 146.995 796.104 146.624 796.705 146.354C797.311 146.084 797.998 145.949 798.765 145.949C799.844 145.949 800.692 146.186 801.308 146.659C801.928 147.133 802.368 147.758 802.629 148.534ZM823.72 146.091V147.511H818.066V146.091H823.72ZM819.714 143.477H821.39V153.875C821.39 154.348 821.459 154.704 821.596 154.94C821.738 155.172 821.918 155.329 822.136 155.409C822.359 155.485 822.593 155.523 822.839 155.523C823.024 155.523 823.175 155.513 823.294 155.494C823.412 155.471 823.507 155.452 823.578 155.438L823.919 156.943C823.805 156.986 823.646 157.028 823.443 157.071C823.239 157.118 822.981 157.142 822.669 157.142C822.195 157.142 821.731 157.04 821.277 156.837C820.827 156.633 820.453 156.323 820.154 155.906C819.861 155.49 819.714 154.964 819.714 154.33V143.477ZM834.698 157.227C833.647 157.227 832.74 156.995 831.978 156.531C831.22 156.062 830.635 155.409 830.223 154.571C829.816 153.728 829.613 152.748 829.613 151.631C829.613 150.513 829.816 149.528 830.223 148.676C830.635 147.819 831.208 147.152 831.942 146.673C832.681 146.19 833.542 145.949 834.527 145.949C835.096 145.949 835.657 146.044 836.211 146.233C836.765 146.422 837.269 146.73 837.723 147.156C838.178 147.578 838.54 148.136 838.81 148.832C839.08 149.528 839.215 150.385 839.215 151.403V152.114H830.806V150.665H837.51C837.51 150.049 837.387 149.5 837.141 149.017C836.9 148.534 836.554 148.153 836.104 147.874C835.659 147.594 835.133 147.455 834.527 147.455C833.86 147.455 833.282 147.62 832.794 147.952C832.311 148.278 831.94 148.705 831.679 149.23C831.419 149.756 831.289 150.319 831.289 150.92V151.886C831.289 152.71 831.431 153.409 831.715 153.982C832.004 154.55 832.404 154.983 832.915 155.281C833.426 155.575 834.021 155.722 834.698 155.722C835.138 155.722 835.536 155.66 835.891 155.537C836.251 155.409 836.561 155.22 836.821 154.969C837.082 154.713 837.283 154.396 837.425 154.017L839.044 154.472C838.874 155.021 838.587 155.504 838.185 155.92C837.783 156.332 837.285 156.654 836.694 156.886C836.102 157.114 835.436 157.227 834.698 157.227ZM853.492 148.534L851.986 148.96C851.891 148.709 851.752 148.465 851.567 148.229C851.387 147.987 851.141 147.788 850.828 147.632C850.516 147.476 850.116 147.398 849.628 147.398C848.961 147.398 848.404 147.552 847.959 147.859C847.519 148.162 847.299 148.548 847.299 149.017C847.299 149.434 847.45 149.763 847.753 150.004C848.056 150.246 848.53 150.447 849.174 150.608L850.793 151.006C851.768 151.242 852.495 151.605 852.973 152.092C853.452 152.575 853.691 153.198 853.691 153.96C853.691 154.585 853.511 155.144 853.151 155.636C852.796 156.129 852.299 156.517 851.659 156.801C851.02 157.085 850.277 157.227 849.429 157.227C848.317 157.227 847.396 156.986 846.667 156.503C845.937 156.02 845.476 155.314 845.282 154.386L846.873 153.989C847.024 154.576 847.31 155.016 847.732 155.31C848.158 155.603 848.714 155.75 849.401 155.75C850.182 155.75 850.802 155.584 851.262 155.253C851.726 154.917 851.958 154.514 851.958 154.045C851.958 153.667 851.825 153.349 851.56 153.094C851.295 152.833 850.888 152.639 850.338 152.511L848.52 152.085C847.521 151.848 846.787 151.482 846.319 150.984C845.855 150.482 845.623 149.855 845.623 149.102C845.623 148.487 845.795 147.942 846.141 147.469C846.491 146.995 846.967 146.624 847.569 146.354C848.175 146.084 848.861 145.949 849.628 145.949C850.708 145.949 851.555 146.186 852.171 146.659C852.791 147.133 853.231 147.758 853.492 148.534ZM864.958 146.091V147.511H859.305V146.091H864.958ZM860.952 143.477H862.629V153.875C862.629 154.348 862.697 154.704 862.835 154.94C862.977 155.172 863.156 155.329 863.374 155.409C863.597 155.485 863.831 155.523 864.077 155.523C864.262 155.523 864.414 155.513 864.532 155.494C864.65 155.471 864.745 155.452 864.816 155.438L865.157 156.943C865.043 156.986 864.885 157.028 864.681 157.071C864.478 157.118 864.219 157.142 863.907 157.142C863.433 157.142 862.969 157.04 862.515 156.837C862.065 156.633 861.691 156.323 861.393 155.906C861.099 155.49 860.952 154.964 860.952 154.33V143.477ZM881.104 157V146.091H882.781V157H881.104ZM881.957 144.273C881.63 144.273 881.348 144.161 881.112 143.939C880.879 143.716 880.763 143.449 880.763 143.136C880.763 142.824 880.879 142.556 881.112 142.334C881.348 142.111 881.63 142 881.957 142C882.283 142 882.563 142.111 882.795 142.334C883.031 142.556 883.15 142.824 883.15 143.136C883.15 143.449 883.031 143.716 882.795 143.939C882.563 144.161 882.283 144.273 881.957 144.273ZM894.595 146.091V147.511H888.941V146.091H894.595ZM890.589 143.477H892.265V153.875C892.265 154.348 892.334 154.704 892.471 154.94C892.613 155.172 892.793 155.329 893.011 155.409C893.234 155.485 893.468 155.523 893.714 155.523C893.899 155.523 894.05 155.513 894.169 155.494C894.287 155.471 894.382 155.452 894.453 155.438L894.794 156.943C894.68 156.986 894.521 157.028 894.318 157.071C894.114 157.118 893.856 157.142 893.544 157.142C893.07 157.142 892.606 157.04 892.152 156.837C891.702 156.633 891.328 156.323 891.029 155.906C890.736 155.49 890.589 154.964 890.589 154.33V143.477Z" fill="white"/>
<circle cx="535" cy="100" r="50" fill="white"/>
<path d="M514.886 106.358H521.42L524.705 110.584L527.936 114.348L534.026 121.983H526.853L522.663 116.834L520.514 113.78L514.886 106.358ZM534.577 100.818C534.577 104.784 533.825 108.157 532.322 110.939C530.83 113.721 528.794 115.845 526.214 117.313C523.645 118.769 520.757 119.497 517.549 119.497C514.317 119.497 511.417 118.763 508.849 117.295C506.28 115.828 504.25 113.703 502.759 110.921C501.267 108.139 500.521 104.772 500.521 100.818C500.521 96.8527 501.267 93.4792 502.759 90.6974C504.25 87.9157 506.28 85.7969 508.849 84.3409C511.417 82.8731 514.317 82.1392 517.549 82.1392C520.757 82.1392 523.645 82.8731 526.214 84.3409C528.794 85.7969 530.83 87.9157 532.322 90.6974C533.825 93.4792 534.577 96.8527 534.577 100.818ZM526.782 100.818C526.782 98.2495 526.397 96.0833 525.628 94.3196C524.87 92.5559 523.799 91.2183 522.414 90.3068C521.029 89.3954 519.407 88.9396 517.549 88.9396C515.691 88.9396 514.069 89.3954 512.684 90.3068C511.299 91.2183 510.222 92.5559 509.452 94.3196C508.695 96.0833 508.316 98.2495 508.316 100.818C508.316 103.387 508.695 105.553 509.452 107.317C510.222 109.08 511.299 110.418 512.684 111.33C514.069 112.241 515.691 112.697 517.549 112.697C519.407 112.697 521.029 112.241 522.414 111.33C523.799 110.418 524.87 109.08 525.628 107.317C526.397 105.553 526.782 103.387 526.782 100.818ZM544.489 119H536.25L548.803 82.6364H558.711L571.247 119H563.008L553.899 90.946H553.615L544.489 119ZM543.974 104.707H563.434V110.708H543.974V104.707Z" fill="#4FD1B2"/>
</svg>
