<svg width="2256" height="418" viewBox="0 0 2256 418" fill="none" xmlns="http://www.w3.org/2000/svg">
<rect width="2256" height="418" fill="#4FD1B2"/>
<path d="M946.15 148H966.85L982.9 210.85H983.2V148H997.9V253H980.95L961.15 176.35H960.85V253H946.15V148ZM1122.66 148H1167.66V163H1139.16V190.75H1161.81V205.75H1139.16V238H1167.66V253H1122.66V148ZM1311.4 254.5C1303.4 254.5 1297.35 252.25 1293.25 247.75C1289.15 243.15 1287.1 236.6 1287.1 228.1V222.1H1302.7V229.3C1302.7 236.1 1305.55 239.5 1311.25 239.5C1314.05 239.5 1316.15 238.7 1317.55 237.1C1319.05 235.4 1319.8 232.7 1319.8 229C1319.8 224.6 1318.8 220.75 1316.8 217.45C1314.8 214.05 1311.1 210 1305.7 205.3C1298.9 199.3 1294.15 193.9 1291.45 189.1C1288.75 184.2 1287.4 178.7 1287.4 172.6C1287.4 164.3 1289.5 157.9 1293.7 153.4C1297.9 148.8 1304 146.5 1312 146.5C1319.9 146.5 1325.85 148.8 1329.85 153.4C1333.95 157.9 1336 164.4 1336 172.9V177.25H1320.4V171.85C1320.4 168.25 1319.7 165.65 1318.3 164.05C1316.9 162.35 1314.85 161.5 1312.15 161.5C1306.65 161.5 1303.9 164.85 1303.9 171.55C1303.9 175.35 1304.9 178.9 1306.9 182.2C1309 185.5 1312.75 189.5 1318.15 194.2C1325.05 200.2 1329.8 205.65 1332.4 210.55C1335 215.45 1336.3 221.2 1336.3 227.8C1336.3 236.4 1334.15 243 1329.85 247.6C1325.65 252.2 1319.5 254.5 1311.4 254.5ZM1479.71 254.5C1471.71 254.5 1465.66 252.25 1461.56 247.75C1457.46 243.15 1455.41 236.6 1455.41 228.1V222.1H1471.01V229.3C1471.01 236.1 1473.86 239.5 1479.56 239.5C1482.36 239.5 1484.46 238.7 1485.86 237.1C1487.36 235.4 1488.11 232.7 1488.11 229C1488.11 224.6 1487.11 220.75 1485.11 217.45C1483.11 214.05 1479.41 210 1474.01 205.3C1467.21 199.3 1462.46 193.9 1459.76 189.1C1457.06 184.2 1455.71 178.7 1455.71 172.6C1455.71 164.3 1457.81 157.9 1462.01 153.4C1466.21 148.8 1472.31 146.5 1480.31 146.5C1488.21 146.5 1494.16 148.8 1498.16 153.4C1502.26 157.9 1504.31 164.4 1504.31 172.9V177.25H1488.71V171.85C1488.71 168.25 1488.01 165.65 1486.61 164.05C1485.21 162.35 1483.16 161.5 1480.46 161.5C1474.96 161.5 1472.21 164.85 1472.21 171.55C1472.21 175.35 1473.21 178.9 1475.21 182.2C1477.31 185.5 1481.06 189.5 1486.46 194.2C1493.36 200.2 1498.11 205.65 1500.71 210.55C1503.31 215.45 1504.61 221.2 1504.61 227.8C1504.61 236.4 1502.46 243 1498.16 247.6C1493.96 252.2 1487.81 254.5 1479.71 254.5Z" fill="white"/>
<path d="M1336.46 312H1343.06V348H1353.92V354H1336.46V312ZM1366.09 312H1384.09V318H1372.69V329.1H1381.75V335.1H1372.69V348H1384.09V354H1366.09V312ZM1402.04 318H1395.14V312H1415.54V318H1408.64V354H1402.04V318ZM1430.48 318.36H1428.32V312H1434.68V317.7L1431.02 325.56H1427.96L1430.48 318.36ZM1457.21 354.6C1454.01 354.6 1451.59 353.7 1449.95 351.9C1448.31 350.06 1447.49 347.44 1447.49 344.04V341.64H1453.73V344.52C1453.73 347.24 1454.87 348.6 1457.15 348.6C1458.27 348.6 1459.11 348.28 1459.67 347.64C1460.27 346.96 1460.57 345.88 1460.57 344.4C1460.57 342.64 1460.17 341.1 1459.37 339.78C1458.57 338.42 1457.09 336.8 1454.93 334.92C1452.21 332.52 1450.31 330.36 1449.23 328.44C1448.15 326.48 1447.61 324.28 1447.61 321.84C1447.61 318.52 1448.45 315.96 1450.13 314.16C1451.81 312.32 1454.25 311.4 1457.45 311.4C1460.61 311.4 1462.99 312.32 1464.59 314.16C1466.23 315.96 1467.05 318.56 1467.05 321.96V323.7H1460.81V321.54C1460.81 320.1 1460.53 319.06 1459.97 318.42C1459.41 317.74 1458.59 317.4 1457.51 317.4C1455.31 317.4 1454.21 318.74 1454.21 321.42C1454.21 322.94 1454.61 324.36 1455.41 325.68C1456.25 327 1457.75 328.6 1459.91 330.48C1462.67 332.88 1464.57 335.06 1465.61 337.02C1466.65 338.98 1467.17 341.28 1467.17 343.92C1467.17 347.36 1466.31 350 1464.59 351.84C1462.91 353.68 1460.45 354.6 1457.21 354.6ZM1503.73 318H1496.83V312H1517.23V318H1510.33V354H1503.73V318ZM1529.42 312H1547.42V318H1536.02V329.1H1545.08V335.1H1536.02V348H1547.42V354H1529.42V312ZM1568.92 354.6C1565.72 354.6 1563.3 353.7 1561.66 351.9C1560.02 350.06 1559.2 347.44 1559.2 344.04V341.64H1565.44V344.52C1565.44 347.24 1566.58 348.6 1568.86 348.6C1569.98 348.6 1570.82 348.28 1571.38 347.64C1571.98 346.96 1572.28 345.88 1572.28 344.4C1572.28 342.64 1571.88 341.1 1571.08 339.78C1570.28 338.42 1568.8 336.8 1566.64 334.92C1563.92 332.52 1562.02 330.36 1560.94 328.44C1559.86 326.48 1559.32 324.28 1559.32 321.84C1559.32 318.52 1560.16 315.96 1561.83 314.16C1563.52 312.32 1565.96 311.4 1569.16 311.4C1572.32 311.4 1574.7 312.32 1576.3 314.16C1577.94 315.96 1578.76 318.56 1578.76 321.96V323.7H1572.52V321.54C1572.52 320.1 1572.24 319.06 1571.68 318.42C1571.12 317.74 1570.3 317.4 1569.22 317.4C1567.02 317.4 1565.92 318.74 1565.92 321.42C1565.92 322.94 1566.32 324.36 1567.12 325.68C1567.96 327 1569.46 328.6 1571.62 330.48C1574.38 332.88 1576.28 335.06 1577.32 337.02C1578.36 338.98 1578.88 341.28 1578.88 343.92C1578.88 347.36 1578.02 350 1576.3 351.84C1574.62 353.68 1572.16 354.6 1568.92 354.6ZM1596.82 318H1589.92V312H1610.32V318H1603.42V354H1596.82V318ZM1641.12 312H1647.72V354H1641.12V312ZM1666.83 318H1659.93V312H1680.33V318H1673.43V354H1666.83V318Z" fill="white"/>
<circle cx="724" cy="209" r="150" fill="white"/>
<path d="M699.75 263.75C692.25 263.75 687.65 260.4 685.95 253.7C682.85 254.9 679.2 255.5 675 255.5C666.9 255.5 660.7 253.2 656.4 248.6C652.1 244 649.95 237.5 649.95 229.1V173.9C649.95 165.5 652.1 159 656.4 154.4C660.7 149.8 666.9 147.5 675 147.5C683.1 147.5 689.3 149.8 693.6 154.4C697.9 159 700.05 165.5 700.05 173.9V229.1C700.05 236.1 698.5 241.85 695.4 246.35C696 247.35 696.75 248 697.65 248.3C698.55 248.6 699.85 248.75 701.55 248.75H704.1V263.75H699.75ZM675 240.5C680.7 240.5 683.55 237.05 683.55 230.15V172.85C683.55 165.95 680.7 162.5 675 162.5C669.3 162.5 666.45 165.95 666.45 172.85V230.15C666.45 237.05 669.3 240.5 675 240.5ZM761.166 149H783.516L800.616 254H784.116L781.116 233.15V233.45H762.366L759.366 254H744.066L761.166 149ZM779.166 219.2L771.816 167.3H771.516L764.316 219.2H779.166Z" fill="#4FD1B2"/>
</svg>
